<svg width="286" height="160" viewBox="0 0 286 160" fill="none" xmlns="http://www.w3.org/2000/svg">
<g clip-path="url(#clip0_4_180)">
<path d="M273.053 25.9287C269.727 17.8946 263.01 11.5632 253.095 7.11248C243.596 2.84707 231.558 0.474649 217.321 0.0644182C188.136 -0.778285 152.903 6.6899 118.12 21.0999C115.619 22.1353 113.14 23.198 110.688 24.2878L114.156 24.2977C115.643 23.6527 117.143 23.0176 118.656 22.3924C189.92 -7.12451 258.604 -5.29824 271.761 26.465C275.572 35.6631 274.314 46.376 268.872 57.6747C255.53 85.3974 217.01 116.637 166.379 137.608C161.48 139.637 156.577 141.525 151.682 143.272C121.98 153.879 92.6432 159.254 67.7526 158.535C53.6985 158.129 41.8438 155.799 32.5123 151.61C22.9311 147.31 16.4589 141.228 13.2734 133.535C10.3993 126.593 10.4092 118.789 12.9274 110.52L11.8524 109.307C8.90173 118.421 8.94127 126.742 11.9785 134.072C15.3073 142.106 22.0217 148.437 31.9389 152.888C41.4385 157.153 53.4736 159.526 67.7106 159.936C69.1983 159.978 70.7008 160 72.2182 160C97.309 160 126.453 154.151 155.774 143.272C159.489 141.896 163.203 140.438 166.915 138.9C201.698 124.493 231.892 104.864 251.934 83.628C259.815 75.2776 265.785 67.0383 269.742 59.0586C270.696 57.1384 271.531 55.2355 272.248 53.35C276.11 43.1906 276.382 33.9653 273.053 25.9287V25.9287Z" fill="url(#paint0_linear_4_180)"/>
<path d="M273.053 25.9287C269.727 17.8946 263.01 11.5632 253.095 7.11248C243.596 2.84707 231.558 0.474649 217.321 0.0644182C188.136 -0.778285 152.903 6.6899 118.12 21.0999C115.619 22.1353 113.14 23.198 110.688 24.2878L114.156 24.2977C115.643 23.6527 117.143 23.0176 118.656 22.3924C189.92 -7.12451 258.604 -5.29824 271.761 26.465C275.572 35.6631 274.314 46.376 268.872 57.6747C255.53 85.3974 217.01 116.637 166.379 137.608C161.48 139.637 156.577 141.525 151.682 143.272C121.98 153.879 92.6432 159.254 67.7526 158.535C53.6985 158.129 41.8438 155.799 32.5123 151.61C22.9311 147.31 16.4589 141.228 13.2734 133.535C10.3993 126.593 10.4092 118.789 12.9274 110.52L11.8524 109.307C8.90173 118.421 8.94127 126.742 11.9785 134.072C15.3073 142.106 22.0217 148.437 31.9389 152.888C41.4385 157.153 53.4736 159.526 67.7106 159.936C69.1983 159.978 70.7008 160 72.2182 160C97.309 160 126.453 154.151 155.774 143.272C159.489 141.896 163.203 140.438 166.915 138.9C201.698 124.493 231.892 104.864 251.934 83.628C259.815 75.2776 265.785 67.0383 269.742 59.0586C270.696 57.1384 271.531 55.2355 272.248 53.35C276.11 43.1906 276.382 33.9653 273.053 25.9287V25.9287Z" fill="url(#paint1_radial_4_180)"/>
<path d="M273.053 25.9287C269.727 17.8946 263.01 11.5632 253.095 7.11248C243.596 2.84707 231.558 0.474649 217.321 0.0644182C188.136 -0.778285 152.903 6.6899 118.12 21.0999C115.619 22.1353 113.14 23.198 110.688 24.2878L114.156 24.2977C115.643 23.6527 117.143 23.0176 118.656 22.3924C189.92 -7.12451 258.604 -5.29824 271.761 26.465C275.572 35.6631 274.314 46.376 268.872 57.6747C255.53 85.3974 217.01 116.637 166.379 137.608C161.48 139.637 156.577 141.525 151.682 143.272C121.98 153.879 92.6432 159.254 67.7526 158.535C53.6985 158.129 41.8438 155.799 32.5123 151.61C22.9311 147.31 16.4589 141.228 13.2734 133.535C10.3993 126.593 10.4092 118.789 12.9274 110.52L11.8524 109.307C8.90173 118.421 8.94127 126.742 11.9785 134.072C15.3073 142.106 22.0217 148.437 31.9389 152.888C41.4385 157.153 53.4736 159.526 67.7106 159.936C69.1983 159.978 70.7008 160 72.2182 160C97.309 160 126.453 154.151 155.774 143.272C159.489 141.896 163.203 140.438 166.915 138.9C201.698 124.493 231.892 104.864 251.934 83.628C259.815 75.2776 265.785 67.0383 269.742 59.0586C270.696 57.1384 271.531 55.2355 272.248 53.35C276.11 43.1906 276.382 33.9653 273.053 25.9287V25.9287Z" fill="url(#paint2_radial_4_180)"/>
<path d="M65.3555 33.776L58.1875 25.52H30.6035L34.8275 33.776H65.3555ZM65.0355 43.12H45.0675C44.8115 43.12 44.6195 43.312 44.6195 43.504V51.248C44.6195 51.44 44.8115 51.632 45.0675 51.632H56.9075V61.744H43.2115V35.632H34.6355V70.384H43.2115L65.4195 70.32V43.504C65.4195 43.312 65.2915 43.12 65.0355 43.12ZM92.1405 25.52H79.3405L83.6925 33.648H86.3165L102.124 70.32H111.468L92.1405 25.52ZM84.7805 54.064L88.5565 45.488L83.8205 34.352L68.3965 70.32H77.7405L81.1325 62.64L95.9805 62.576L92.3965 54.064H84.7805ZM119.914 24.944L114.986 33.52V69.808H123.498V33.52H155.498L159.979 24.944H119.914ZM130.986 69.808H139.498L139.626 54.256L130.986 57.456V69.808ZM130.986 35.248V55.216L139.626 51.888L139.498 35.248H130.986ZM146.666 69.808H155.243L155.37 54.256L146.666 57.456V69.808ZM146.666 35.248V55.216L155.37 51.888L155.243 35.248H146.666ZM164.625 54.064V70.384H173.137L173.265 51.312L164.625 54.064ZM173.137 25.52H164.625V51.76L173.265 48.944L173.137 25.52ZM215.317 24.944H187.733L180.501 33.264V69.808H189.013V33.264H211.157L215.317 24.944ZM202.581 69.808H211.157L211.285 54.256L202.581 57.456V69.808ZM202.581 55.216L211.285 51.888L211.157 35.248H202.581V55.216ZM252.457 33.776L245.289 25.52H217.705L221.929 33.776H252.457ZM252.137 43.12H232.169C231.913 43.12 231.721 43.312 231.721 43.504V51.248C231.721 51.44 231.913 51.632 232.169 51.632H244.009V61.744H230.313V35.632H221.737V70.384H230.313L252.521 70.32V43.504C252.521 43.312 252.393 43.12 252.137 43.12ZM63.434 94.264L67.658 85.944H40.074L32.586 94.264V111.672C32.586 111.928 32.778 112.12 32.97 112.12H54.538C54.666 112.12 54.73 112.056 54.794 111.992V122.232H46.666L48.842 130.808H63.37V103.544H54.794V103.672C54.73 103.608 54.666 103.544 54.538 103.544H41.098V94.264H63.434ZM32.522 122.232V130.808H46.218L43.914 122.232H32.522ZM95.8495 85.944H68.2015L72.4255 94.264H101.033L95.8495 85.944ZM88.8095 130.808V96.12H80.2335V130.808H88.8095ZM124.648 86.52H111.848L116.2 94.648H118.824L134.632 131.32H143.976L124.648 86.52ZM117.288 115.064L121.064 106.488L116.328 95.352L100.904 131.32H110.248L113.64 123.64L128.488 123.576L124.904 115.064H117.288ZM171.302 85.944H143.654L147.878 94.264H176.486L171.302 85.944ZM164.262 130.808V96.12H155.686V130.808H164.262ZM203.94 122.232H190.244V96.12H181.668V130.808H185.892H209.7H212.452V112.632H203.94V122.232ZM212.452 110.52V85.944H203.94V110.52H212.452ZM190.18 94.136V85.944H177.444L181.86 94.136H190.18ZM250.223 94.264L254.447 85.944H226.863L219.375 94.264V111.672C219.375 111.928 219.567 112.12 219.759 112.12H241.327C241.455 112.12 241.519 112.056 241.583 111.992V122.232H233.455L235.631 130.808H250.159V103.544H241.583V103.672C241.519 103.608 241.455 103.544 241.327 103.544H227.887V94.264H250.223ZM219.311 122.232V130.808H233.007L230.703 122.232H219.311Z" fill="url(#paint3_linear_4_180)"/>
<path d="M11.9786 25.9287C15.305 17.8946 22.0219 11.5632 31.9366 7.11248C41.4362 2.84707 53.4738 0.474649 67.7108 0.0644182C96.8965 -0.778285 132.129 6.6899 166.913 21.0999C169.413 22.1353 171.892 23.198 174.344 24.2878L170.876 24.2977C169.389 23.6527 167.889 23.0176 166.376 22.3924C95.1122 -7.12451 26.4282 -5.29824 13.2711 26.465C9.46042 35.6631 10.7183 46.376 16.16 57.6747C29.5024 85.3974 68.0221 116.637 118.654 137.608C123.552 139.637 128.455 141.525 133.35 143.272C163.052 153.879 192.389 159.254 217.279 158.535C231.334 158.129 243.188 155.799 252.52 151.61C262.101 147.31 268.573 141.228 271.759 133.535C274.633 126.593 274.623 118.789 272.105 110.52L273.18 109.307C276.13 118.421 276.091 126.742 273.054 134.072C269.725 142.106 263.01 148.437 253.093 152.888C243.594 157.153 231.559 159.526 217.322 159.936C215.834 159.978 214.331 160 212.814 160C187.723 160 158.579 154.151 129.258 143.272C125.543 141.896 121.829 140.438 118.117 138.9C83.3341 124.493 53.1401 104.864 33.0981 83.628C25.2172 75.2776 19.2467 67.0383 15.2902 59.0586C14.3362 57.1384 13.501 55.2355 12.7843 53.35C8.92168 43.1906 8.64985 33.9653 11.9786 25.9287V25.9287Z" fill="url(#paint4_linear_4_180)"/>
<path d="M11.9786 25.9287C15.305 17.8946 22.0219 11.5632 31.9366 7.11248C41.4362 2.84707 53.4738 0.474649 67.7108 0.0644182C96.8965 -0.778285 132.129 6.6899 166.913 21.0999C169.413 22.1353 171.892 23.198 174.344 24.2878L170.876 24.2977C169.389 23.6527 167.889 23.0176 166.376 22.3924C95.1122 -7.12451 26.4282 -5.29824 13.2711 26.465C9.46042 35.6631 10.7183 46.376 16.16 57.6747C29.5024 85.3974 68.0221 116.637 118.654 137.608C123.552 139.637 128.455 141.525 133.35 143.272C163.052 153.879 192.389 159.254 217.279 158.535C231.334 158.129 243.188 155.799 252.52 151.61C262.101 147.31 268.573 141.228 271.759 133.535C274.633 126.593 274.623 118.789 272.105 110.52L273.18 109.307C276.13 118.421 276.091 126.742 273.054 134.072C269.725 142.106 263.01 148.437 253.093 152.888C243.594 157.153 231.559 159.526 217.322 159.936C215.834 159.978 214.331 160 212.814 160C187.723 160 158.579 154.151 129.258 143.272C125.543 141.896 121.829 140.438 118.117 138.9C83.3341 124.493 53.1401 104.864 33.0981 83.628C25.2172 75.2776 19.2467 67.0383 15.2902 59.0586C14.3362 57.1384 13.501 55.2355 12.7843 53.35C8.92168 43.1906 8.64985 33.9653 11.9786 25.9287V25.9287Z" fill="url(#paint5_radial_4_180)"/>
<path d="M11.9786 25.9287C15.305 17.8946 22.0219 11.5632 31.9366 7.11248C41.4362 2.84707 53.4738 0.474649 67.7108 0.0644182C96.8965 -0.778285 132.129 6.6899 166.913 21.0999C169.413 22.1353 171.892 23.198 174.344 24.2878L170.876 24.2977C169.389 23.6527 167.889 23.0176 166.376 22.3924C95.1122 -7.12451 26.4282 -5.29824 13.2711 26.465C9.46042 35.6631 10.7183 46.376 16.16 57.6747C29.5024 85.3974 68.0221 116.637 118.654 137.608C123.552 139.637 128.455 141.525 133.35 143.272C163.052 153.879 192.389 159.254 217.279 158.535C231.334 158.129 243.188 155.799 252.52 151.61C262.101 147.31 268.573 141.228 271.759 133.535C274.633 126.593 274.623 118.789 272.105 110.52L273.18 109.307C276.13 118.421 276.091 126.742 273.054 134.072C269.725 142.106 263.01 148.437 253.093 152.888C243.594 157.153 231.559 159.526 217.322 159.936C215.834 159.978 214.331 160 212.814 160C187.723 160 158.579 154.151 129.258 143.272C125.543 141.896 121.829 140.438 118.117 138.9C83.3341 124.493 53.1401 104.864 33.0981 83.628C25.2172 75.2776 19.2467 67.0383 15.2902 59.0586C14.3362 57.1384 13.501 55.2355 12.7843 53.35C8.92168 43.1906 8.64985 33.9653 11.9786 25.9287V25.9287Z" fill="url(#paint6_radial_4_180)"/>
<path d="M11.9786 25.9287C15.305 17.8946 22.0219 11.5632 31.9366 7.11248C41.4362 2.84707 53.4738 0.474649 67.7108 0.0644182C96.8965 -0.778285 132.129 6.6899 166.913 21.0999C169.413 22.1353 171.892 23.198 174.344 24.2878L170.876 24.2977C169.389 23.6527 167.889 23.0176 166.376 22.3924C95.1122 -7.12451 26.4282 -5.29824 13.2711 26.465C9.46042 35.6631 10.7183 46.376 16.16 57.6747C29.5024 85.3974 68.0221 116.637 118.654 137.608C123.552 139.637 128.455 141.525 133.35 143.272C163.052 153.879 192.389 159.254 217.279 158.535C231.334 158.129 243.188 155.799 252.52 151.61C262.101 147.31 268.573 141.228 271.759 133.535C274.633 126.593 274.623 118.789 272.105 110.52L273.18 109.307C276.13 118.421 276.091 126.742 273.054 134.072C269.725 142.106 263.01 148.437 253.093 152.888C243.594 157.153 231.559 159.526 217.322 159.936C215.834 159.978 214.331 160 212.814 160C187.723 160 158.579 154.151 129.258 143.272C125.543 141.896 121.829 140.438 118.117 138.9C83.3341 124.493 53.1401 104.864 33.0981 83.628C25.2172 75.2776 19.2467 67.0383 15.2902 59.0586C14.3362 57.1384 13.501 55.2355 12.7843 53.35C8.92168 43.1906 8.64985 33.9653 11.9786 25.9287V25.9287Z" fill="url(#paint7_radial_4_180)"/>
</g>
<defs>
<linearGradient id="paint0_linear_4_180" x1="149.849" y1="17.7274" x2="192.879" y2="126.818" gradientUnits="userSpaceOnUse">
<stop stop-color="#996DFF"/>
<stop offset="0.5" stop-color="#35E8B3"/>
<stop offset="1" stop-color="#E2D45C"/>
</linearGradient>
<radialGradient id="paint1_radial_4_180" cx="0" cy="0" r="1" gradientUnits="userSpaceOnUse" gradientTransform="translate(108.03 27.4244) rotate(-19.3523) scale(65.8413 109.335)">
<stop stop-color="#171225"/>
<stop offset="1" stop-color="#171225" stop-opacity="0"/>
</radialGradient>
<radialGradient id="paint2_radial_4_180" cx="0" cy="0" r="1" gradientUnits="userSpaceOnUse" gradientTransform="translate(11.9698 108.788) rotate(67.4706) scale(44.2891 73.5456)">
<stop stop-color="#191327"/>
<stop offset="1" stop-color="#191327" stop-opacity="0"/>
</radialGradient>
<linearGradient id="paint3_linear_4_180" x1="-42" y1="22" x2="327" y2="22" gradientUnits="userSpaceOnUse">
<stop stop-color="#9572FC"/>
<stop offset="0.505208" stop-color="#43E7AD"/>
<stop offset="1" stop-color="#E2D45C"/>
</linearGradient>
<linearGradient id="paint4_linear_4_180" x1="258.619" y1="114.544" x2="66.1068" y2="115.532" gradientUnits="userSpaceOnUse">
<stop stop-color="#996DFF"/>
<stop offset="0.5" stop-color="#35E8B3"/>
<stop offset="1" stop-color="#E2D45C"/>
</linearGradient>
<radialGradient id="paint5_radial_4_180" cx="0" cy="0" r="1" gradientUnits="userSpaceOnUse" gradientTransform="translate(140.758 146.212) rotate(15.7611) scale(129.411 214.897)">
<stop stop-color="#171226"/>
<stop offset="1" stop-color="#171226" stop-opacity="0"/>
</radialGradient>
<radialGradient id="paint6_radial_4_180" cx="0" cy="0" r="1" gradientUnits="userSpaceOnUse" gradientTransform="translate(173.94 25.0002) rotate(-157.036) scale(29.1264 48.3668)">
<stop stop-color="#261945"/>
<stop offset="1" stop-color="#261945" stop-opacity="0"/>
</radialGradient>
<radialGradient id="paint7_radial_4_180" cx="0" cy="0" r="1" gradientUnits="userSpaceOnUse" gradientTransform="translate(273.485 107.273) rotate(76.7293) scale(33.0025 54.8033)">
<stop stop-color="#191326"/>
<stop offset="1" stop-color="#191326" stop-opacity="0"/>
</radialGradient>
<clipPath id="clip0_4_180">
<rect width="285.034" height="160" fill="white"/>
</clipPath>
</defs>
</svg>
